<svg xmlns="http://www.w3.org/2000/svg" xmlns:xlink= "http://www.w3.org/1999/xlink" width="500" height="400">
        <rect width="100%" height="100%" fill="rgb(0,0,0)"></rect>
        <text x="250" y="206" fill="rgb(255,0,0)" text-anchor="middle" style="font-size:20px;font-family:'Arial';font-weight:bold;">ERROR</text><line x1="225.0" y1="243.301" x2="275.0" y2="243.301" stroke-linecap="round" style="stroke:rgb(255,0,0);stroke-width:10"></line><line x1="275.0" y1="243.301" x2="300.0" y2="200.0" stroke-linecap="round" style="stroke:rgb(255,0,0);stroke-width:10"></line><line x1="300.0" y1="200.0" x2="275.0" y2="156.699" stroke-linecap="round" style="stroke:rgb(255,0,0);stroke-width:10"></line><line x1="275.0" y1="156.699" x2="225.0" y2="156.699" stroke-linecap="round" style="stroke:rgb(255,0,0);stroke-width:10"></line><line x1="225.0" y1="156.699" x2="200.0" y2="200.0" stroke-linecap="round" style="stroke:rgb(255,0,0);stroke-width:10"></line><line x1="200.0" y1="200.0" x2="225.0" y2="243.301" stroke-linecap="round" style="stroke:rgb(255,0,0);stroke-width:10"></line><line x1="216.0" y1="258.89" x2="284.0" y2="258.89" stroke-linecap="round" style="stroke:rgb(230,0,0);stroke-width:10"></line><line x1="284.0" y1="258.89" x2="318.0" y2="200.0" stroke-linecap="round" style="stroke:rgb(230,0,0);stroke-width:10"></line><line x1="318.0" y1="200.0" x2="284.0" y2="141.11" stroke-linecap="round" style="stroke:rgb(230,0,0);stroke-width:10"></line><line x1="284.0" y1="141.11" x2="216.0" y2="141.11" stroke-linecap="round" style="stroke:rgb(230,0,0);stroke-width:10"></line><line x1="216.0" y1="141.11" x2="182.0" y2="200.0" stroke-linecap="round" style="stroke:rgb(230,0,0);stroke-width:10"></line><line x1="182.0" y1="200.0" x2="216.0" y2="258.89" stroke-linecap="round" style="stroke:rgb(230,0,0);stroke-width:10"></line><line x1="207.0" y1="274.478" x2="293.0" y2="274.478" stroke-linecap="round" style="stroke:rgb(205,0,0);stroke-width:10"></line><line x1="293.0" y1="274.478" x2="336.0" y2="200.0" stroke-linecap="round" style="stroke:rgb(205,0,0);stroke-width:10"></line><line x1="336.0" y1="200.0" x2="293.0" y2="125.522" stroke-linecap="round" style="stroke:rgb(205,0,0);stroke-width:10"></line><line x1="293.0" y1="125.522" x2="207.0" y2="125.522" stroke-linecap="round" style="stroke:rgb(205,0,0);stroke-width:10"></line><line x1="207.0" y1="125.522" x2="164.0" y2="200.0" stroke-linecap="round" style="stroke:rgb(205,0,0);stroke-width:10"></line><line x1="164.0" y1="200.0" x2="207.0" y2="274.478" stroke-linecap="round" style="stroke:rgb(205,0,0);stroke-width:10"></line><line x1="198.0" y1="290.067" x2="302.0" y2="290.067" stroke-linecap="round" style="stroke:rgb(180,0,0);stroke-width:10"></line><line x1="302.0" y1="290.067" x2="354.0" y2="200.0" stroke-linecap="round" style="stroke:rgb(180,0,0);stroke-width:10"></line><line x1="354.0" y1="200.0" x2="302.0" y2="109.933" stroke-linecap="round" style="stroke:rgb(180,0,0);stroke-width:10"></line><line x1="302.0" y1="109.933" x2="198.0" y2="109.933" stroke-linecap="round" style="stroke:rgb(180,0,0);stroke-width:10"></line><line x1="198.0" y1="109.933" x2="146.0" y2="200.0" stroke-linecap="round" style="stroke:rgb(180,0,0);stroke-width:10"></line><line x1="146.0" y1="200.0" x2="198.0" y2="290.067" stroke-linecap="round" style="stroke:rgb(180,0,0);stroke-width:10"></line><line x1="189.0" y1="305.655" x2="311.0" y2="305.655" stroke-linecap="round" style="stroke:rgb(155,0,0);stroke-width:10"></line><line x1="311.0" y1="305.655" x2="372.0" y2="200.0" stroke-linecap="round" style="stroke:rgb(155,0,0);stroke-width:10"></line><line x1="372.0" y1="200.0" x2="311.0" y2="94.345" stroke-linecap="round" style="stroke:rgb(155,0,0);stroke-width:10"></line><line x1="311.0" y1="94.345" x2="189.0" y2="94.345" stroke-linecap="round" style="stroke:rgb(155,0,0);stroke-width:10"></line><line x1="189.0" y1="94.345" x2="128.0" y2="200.0" stroke-linecap="round" style="stroke:rgb(155,0,0);stroke-width:10"></line><line x1="128.0" y1="200.0" x2="189.0" y2="305.655" stroke-linecap="round" style="stroke:rgb(155,0,0);stroke-width:10"></line><line x1="180.0" y1="321.244" x2="320.0" y2="321.244" stroke-linecap="round" style="stroke:rgb(130,0,0);stroke-width:10"></line><line x1="320.0" y1="321.244" x2="390.0" y2="200.0" stroke-linecap="round" style="stroke:rgb(130,0,0);stroke-width:10"></line><line x1="390.0" y1="200.0" x2="320.0" y2="78.756" stroke-linecap="round" style="stroke:rgb(130,0,0);stroke-width:10"></line><line x1="320.0" y1="78.756" x2="180.0" y2="78.756" stroke-linecap="round" style="stroke:rgb(130,0,0);stroke-width:10"></line><line x1="180.0" y1="78.756" x2="110.0" y2="200.0" stroke-linecap="round" style="stroke:rgb(130,0,0);stroke-width:10"></line><line x1="110.0" y1="200.0" x2="180.0" y2="321.244" stroke-linecap="round" style="stroke:rgb(130,0,0);stroke-width:10"></line><line x1="171.0" y1="336.832" x2="329.0" y2="336.832" stroke-linecap="round" style="stroke:rgb(105,0,0);stroke-width:10"></line><line x1="329.0" y1="336.832" x2="408.0" y2="200.0" stroke-linecap="round" style="stroke:rgb(105,0,0);stroke-width:10"></line><line x1="408.0" y1="200.0" x2="329.0" y2="63.168" stroke-linecap="round" style="stroke:rgb(105,0,0);stroke-width:10"></line><line x1="329.0" y1="63.168" x2="171.0" y2="63.168" stroke-linecap="round" style="stroke:rgb(105,0,0);stroke-width:10"></line><line x1="171.0" y1="63.168" x2="92.0" y2="200.0" stroke-linecap="round" style="stroke:rgb(105,0,0);stroke-width:10"></line><line x1="92.0" y1="200.0" x2="171.0" y2="336.832" stroke-linecap="round" style="stroke:rgb(105,0,0);stroke-width:10"></line><line x1="162.0" y1="352.42" x2="338.0" y2="352.42" stroke-linecap="round" style="stroke:rgb(80,0,0);stroke-width:10"></line><line x1="338.0" y1="352.42" x2="426.0" y2="200.0" stroke-linecap="round" style="stroke:rgb(80,0,0);stroke-width:10"></line><line x1="426.0" y1="200.0" x2="338.0" y2="47.58" stroke-linecap="round" style="stroke:rgb(80,0,0);stroke-width:10"></line><line x1="338.0" y1="47.58" x2="162.0" y2="47.58" stroke-linecap="round" style="stroke:rgb(80,0,0);stroke-width:10"></line><line x1="162.0" y1="47.58" x2="74.0" y2="200.0" stroke-linecap="round" style="stroke:rgb(80,0,0);stroke-width:10"></line><line x1="74.0" y1="200.0" x2="162.0" y2="352.42" stroke-linecap="round" style="stroke:rgb(80,0,0);stroke-width:10"></line><line x1="153.0" y1="368.009" x2="347.0" y2="368.009" stroke-linecap="round" style="stroke:rgb(55,0,0);stroke-width:10"></line><line x1="347.0" y1="368.009" x2="444.0" y2="200.0" stroke-linecap="round" style="stroke:rgb(55,0,0);stroke-width:10"></line><line x1="444.0" y1="200.0" x2="347.0" y2="31.991" stroke-linecap="round" style="stroke:rgb(55,0,0);stroke-width:10"></line><line x1="347.0" y1="31.991" x2="153.0" y2="31.991" stroke-linecap="round" style="stroke:rgb(55,0,0);stroke-width:10"></line><line x1="153.0" y1="31.991" x2="56.0" y2="200.0" stroke-linecap="round" style="stroke:rgb(55,0,0);stroke-width:10"></line><line x1="56.0" y1="200.0" x2="153.0" y2="368.009" stroke-linecap="round" style="stroke:rgb(55,0,0);stroke-width:10"></line><line x1="144.0" y1="383.597" x2="356.0" y2="383.597" stroke-linecap="round" style="stroke:rgb(30,0,0);stroke-width:10"></line><line x1="356.0" y1="383.597" x2="462.0" y2="200.0" stroke-linecap="round" style="stroke:rgb(30,0,0);stroke-width:10"></line><line x1="462.0" y1="200.0" x2="356.0" y2="16.403" stroke-linecap="round" style="stroke:rgb(30,0,0);stroke-width:10"></line><line x1="356.0" y1="16.403" x2="144.0" y2="16.403" stroke-linecap="round" style="stroke:rgb(30,0,0);stroke-width:10"></line><line x1="144.0" y1="16.403" x2="38.0" y2="200.0" stroke-linecap="round" style="stroke:rgb(30,0,0);stroke-width:10"></line><line x1="38.0" y1="200.0" x2="144.0" y2="383.597" stroke-linecap="round" style="stroke:rgb(30,0,0);stroke-width:10"></line></svg>