<svg xmlns="http://www.w3.org/2000/svg" xmlns:xlink= "http://www.w3.org/1999/xlink" width="400" height="200">
  <rect width="100%" height="100%" fill="rgb(0,0,0)"></rect>
  <line x1="20" y1="20" x2="20" y2="20" stroke-linecap="round" style="stroke:rgb(255,255,100);stroke-width:12"></line><line x1="20" y1="40" x2="20" y2="40" stroke-linecap="round" style="stroke:rgb(255,230,100);stroke-width:12"></line><line x1="20" y1="60" x2="20" y2="60" stroke-linecap="round" style="stroke:rgb(255,205,100);stroke-width:12"></line><line x1="20" y1="80" x2="20" y2="80" stroke-linecap="round" style="stroke:rgb(255,180,100);stroke-width:12"></line><line x1="20" y1="100" x2="20" y2="100" stroke-linecap="round" style="stroke:rgb(255,155,100);stroke-width:12"></line><line x1="20" y1="120" x2="20" y2="120" stroke-linecap="round" style="stroke:rgb(255,130,100);stroke-width:12"></line><line x1="20" y1="140" x2="20" y2="140" stroke-linecap="round" style="stroke:rgb(255,105,100);stroke-width:12"></line><line x1="20" y1="160" x2="20" y2="160" stroke-linecap="round" style="stroke:rgb(255,80,100);stroke-width:12"></line><line x1="20" y1="180" x2="20" y2="180" stroke-linecap="round" style="stroke:rgb(255,55,100);stroke-width:12"></line><line x1="40" y1="20" x2="40" y2="20" stroke-linecap="round" style="stroke:rgb(245,255,100);stroke-width:12"></line><line x1="40" y1="40" x2="40" y2="40" stroke-linecap="round" style="stroke:rgb(245,230,100);stroke-width:12"></line><line x1="40" y1="60" x2="40" y2="60" stroke-linecap="round" style="stroke:rgb(245,205,100);stroke-width:12"></line><line x1="40" y1="80" x2="40" y2="80" stroke-linecap="round" style="stroke:rgb(245,180,100);stroke-width:12"></line><line x1="40" y1="100" x2="40" y2="100" stroke-linecap="round" style="stroke:rgb(245,155,100);stroke-width:12"></line><line x1="40" y1="120" x2="40" y2="120" stroke-linecap="round" style="stroke:rgb(245,130,100);stroke-width:12"></line><line x1="40" y1="140" x2="40" y2="140" stroke-linecap="round" style="stroke:rgb(245,105,100);stroke-width:12"></line><line x1="40" y1="160" x2="40" y2="160" stroke-linecap="round" style="stroke:rgb(245,80,100);stroke-width:12"></line><line x1="40" y1="180" x2="40" y2="180" stroke-linecap="round" style="stroke:rgb(245,55,100);stroke-width:12"></line><line x1="60" y1="20" x2="60" y2="20" stroke-linecap="round" style="stroke:rgb(235,255,100);stroke-width:12"></line><line x1="60" y1="40" x2="60" y2="40" stroke-linecap="round" style="stroke:rgb(235,230,100);stroke-width:12"></line><line x1="60" y1="60" x2="60" y2="60" stroke-linecap="round" style="stroke:rgb(235,205,100);stroke-width:12"></line><line x1="60" y1="80" x2="60" y2="80" stroke-linecap="round" style="stroke:rgb(235,180,100);stroke-width:12"></line><line x1="60" y1="100" x2="60" y2="100" stroke-linecap="round" style="stroke:rgb(235,155,100);stroke-width:12"></line><line x1="60" y1="120" x2="60" y2="120" stroke-linecap="round" style="stroke:rgb(235,130,100);stroke-width:12"></line><line x1="60" y1="140" x2="60" y2="140" stroke-linecap="round" style="stroke:rgb(235,105,100);stroke-width:12"></line><line x1="60" y1="160" x2="60" y2="160" stroke-linecap="round" style="stroke:rgb(235,80,100);stroke-width:12"></line><line x1="60" y1="180" x2="60" y2="180" stroke-linecap="round" style="stroke:rgb(235,55,100);stroke-width:12"></line><line x1="80" y1="20" x2="80" y2="20" stroke-linecap="round" style="stroke:rgb(225,255,100);stroke-width:12"></line><line x1="80" y1="40" x2="80" y2="40" stroke-linecap="round" style="stroke:rgb(225,230,100);stroke-width:12"></line><line x1="80" y1="60" x2="80" y2="60" stroke-linecap="round" style="stroke:rgb(225,205,100);stroke-width:12"></line><line x1="80" y1="80" x2="80" y2="80" stroke-linecap="round" style="stroke:rgb(225,180,100);stroke-width:12"></line><line x1="80" y1="100" x2="80" y2="100" stroke-linecap="round" style="stroke:rgb(225,155,100);stroke-width:12"></line><line x1="80" y1="120" x2="80" y2="120" stroke-linecap="round" style="stroke:rgb(225,130,100);stroke-width:12"></line><line x1="80" y1="140" x2="80" y2="140" stroke-linecap="round" style="stroke:rgb(225,105,100);stroke-width:12"></line><line x1="80" y1="160" x2="80" y2="160" stroke-linecap="round" style="stroke:rgb(225,80,100);stroke-width:12"></line><line x1="80" y1="180" x2="80" y2="180" stroke-linecap="round" style="stroke:rgb(225,55,100);stroke-width:12"></line><line x1="100" y1="20" x2="100" y2="20" stroke-linecap="round" style="stroke:rgb(215,255,100);stroke-width:12"></line><line x1="100" y1="40" x2="100" y2="40" stroke-linecap="round" style="stroke:rgb(215,230,100);stroke-width:12"></line><line x1="100" y1="60" x2="100" y2="60" stroke-linecap="round" style="stroke:rgb(215,205,100);stroke-width:12"></line><line x1="100" y1="80" x2="100" y2="80" stroke-linecap="round" style="stroke:rgb(215,180,100);stroke-width:12"></line><line x1="100" y1="100" x2="100" y2="100" stroke-linecap="round" style="stroke:rgb(215,155,100);stroke-width:12"></line><line x1="100" y1="120" x2="100" y2="120" stroke-linecap="round" style="stroke:rgb(215,130,100);stroke-width:12"></line><line x1="100" y1="140" x2="100" y2="140" stroke-linecap="round" style="stroke:rgb(215,105,100);stroke-width:12"></line><line x1="100" y1="160" x2="100" y2="160" stroke-linecap="round" style="stroke:rgb(215,80,100);stroke-width:12"></line><line x1="100" y1="180" x2="100" y2="180" stroke-linecap="round" style="stroke:rgb(215,55,100);stroke-width:12"></line><line x1="120" y1="20" x2="120" y2="20" stroke-linecap="round" style="stroke:rgb(205,255,100);stroke-width:12"></line><line x1="120" y1="40" x2="120" y2="40" stroke-linecap="round" style="stroke:rgb(205,230,100);stroke-width:12"></line><line x1="120" y1="60" x2="120" y2="60" stroke-linecap="round" style="stroke:rgb(205,205,100);stroke-width:12"></line><line x1="120" y1="80" x2="120" y2="80" stroke-linecap="round" style="stroke:rgb(205,180,100);stroke-width:12"></line><line x1="120" y1="100" x2="120" y2="100" stroke-linecap="round" style="stroke:rgb(205,155,100);stroke-width:12"></line><line x1="120" y1="120" x2="120" y2="120" stroke-linecap="round" style="stroke:rgb(205,130,100);stroke-width:12"></line><line x1="120" y1="140" x2="120" y2="140" stroke-linecap="round" style="stroke:rgb(205,105,100);stroke-width:12"></line><line x1="120" y1="160" x2="120" y2="160" stroke-linecap="round" style="stroke:rgb(205,80,100);stroke-width:12"></line><line x1="120" y1="180" x2="120" y2="180" stroke-linecap="round" style="stroke:rgb(205,55,100);stroke-width:12"></line><line x1="140" y1="20" x2="140" y2="20" stroke-linecap="round" style="stroke:rgb(195,255,100);stroke-width:12"></line><line x1="140" y1="40" x2="140" y2="40" stroke-linecap="round" style="stroke:rgb(195,230,100);stroke-width:12"></line><line x1="140" y1="60" x2="140" y2="60" stroke-linecap="round" style="stroke:rgb(195,205,100);stroke-width:12"></line><line x1="140" y1="80" x2="140" y2="80" stroke-linecap="round" style="stroke:rgb(195,180,100);stroke-width:12"></line><line x1="140" y1="100" x2="140" y2="100" stroke-linecap="round" style="stroke:rgb(195,155,100);stroke-width:12"></line><line x1="140" y1="120" x2="140" y2="120" stroke-linecap="round" style="stroke:rgb(195,130,100);stroke-width:12"></line><line x1="140" y1="140" x2="140" y2="140" stroke-linecap="round" style="stroke:rgb(195,105,100);stroke-width:12"></line><line x1="140" y1="160" x2="140" y2="160" stroke-linecap="round" style="stroke:rgb(195,80,100);stroke-width:12"></line><line x1="140" y1="180" x2="140" y2="180" stroke-linecap="round" style="stroke:rgb(195,55,100);stroke-width:12"></line><line x1="160" y1="20" x2="160" y2="20" stroke-linecap="round" style="stroke:rgb(185,255,100);stroke-width:12"></line><line x1="160" y1="40" x2="160" y2="40" stroke-linecap="round" style="stroke:rgb(185,230,100);stroke-width:12"></line><line x1="160" y1="60" x2="160" y2="60" stroke-linecap="round" style="stroke:rgb(185,205,100);stroke-width:12"></line><line x1="160" y1="80" x2="160" y2="80" stroke-linecap="round" style="stroke:rgb(185,180,100);stroke-width:12"></line><line x1="160" y1="100" x2="160" y2="100" stroke-linecap="round" style="stroke:rgb(185,155,100);stroke-width:12"></line><line x1="160" y1="120" x2="160" y2="120" stroke-linecap="round" style="stroke:rgb(185,130,100);stroke-width:12"></line><line x1="160" y1="140" x2="160" y2="140" stroke-linecap="round" style="stroke:rgb(185,105,100);stroke-width:12"></line><line x1="160" y1="160" x2="160" y2="160" stroke-linecap="round" style="stroke:rgb(185,80,100);stroke-width:12"></line><line x1="160" y1="180" x2="160" y2="180" stroke-linecap="round" style="stroke:rgb(185,55,100);stroke-width:12"></line><line x1="180" y1="20" x2="180" y2="20" stroke-linecap="round" style="stroke:rgb(175,255,100);stroke-width:12"></line><line x1="180" y1="40" x2="180" y2="40" stroke-linecap="round" style="stroke:rgb(175,230,100);stroke-width:12"></line><line x1="180" y1="60" x2="180" y2="60" stroke-linecap="round" style="stroke:rgb(175,205,100);stroke-width:12"></line><line x1="180" y1="80" x2="180" y2="80" stroke-linecap="round" style="stroke:rgb(175,180,100);stroke-width:12"></line><line x1="180" y1="100" x2="180" y2="100" stroke-linecap="round" style="stroke:rgb(175,155,100);stroke-width:12"></line><line x1="180" y1="120" x2="180" y2="120" stroke-linecap="round" style="stroke:rgb(175,130,100);stroke-width:12"></line><line x1="180" y1="140" x2="180" y2="140" stroke-linecap="round" style="stroke:rgb(175,105,100);stroke-width:12"></line><line x1="180" y1="160" x2="180" y2="160" stroke-linecap="round" style="stroke:rgb(175,80,100);stroke-width:12"></line><line x1="180" y1="180" x2="180" y2="180" stroke-linecap="round" style="stroke:rgb(175,55,100);stroke-width:12"></line><line x1="200" y1="20" x2="200" y2="20" stroke-linecap="round" style="stroke:rgb(165,255,100);stroke-width:12"></line><line x1="200" y1="40" x2="200" y2="40" stroke-linecap="round" style="stroke:rgb(165,230,100);stroke-width:12"></line><line x1="200" y1="60" x2="200" y2="60" stroke-linecap="round" style="stroke:rgb(165,205,100);stroke-width:12"></line><line x1="200" y1="80" x2="200" y2="80" stroke-linecap="round" style="stroke:rgb(165,180,100);stroke-width:12"></line><line x1="200" y1="100" x2="200" y2="100" stroke-linecap="round" style="stroke:rgb(165,155,100);stroke-width:12"></line><line x1="200" y1="120" x2="200" y2="120" stroke-linecap="round" style="stroke:rgb(165,130,100);stroke-width:12"></line><line x1="200" y1="140" x2="200" y2="140" stroke-linecap="round" style="stroke:rgb(165,105,100);stroke-width:12"></line><line x1="200" y1="160" x2="200" y2="160" stroke-linecap="round" style="stroke:rgb(165,80,100);stroke-width:12"></line><line x1="200" y1="180" x2="200" y2="180" stroke-linecap="round" style="stroke:rgb(165,55,100);stroke-width:12"></line><line x1="220" y1="20" x2="220" y2="20" stroke-linecap="round" style="stroke:rgb(155,255,100);stroke-width:12"></line><line x1="220" y1="40" x2="220" y2="40" stroke-linecap="round" style="stroke:rgb(155,230,100);stroke-width:12"></line><line x1="220" y1="60" x2="220" y2="60" stroke-linecap="round" style="stroke:rgb(155,205,100);stroke-width:12"></line><line x1="220" y1="80" x2="220" y2="80" stroke-linecap="round" style="stroke:rgb(155,180,100);stroke-width:12"></line><line x1="220" y1="100" x2="220" y2="100" stroke-linecap="round" style="stroke:rgb(155,155,100);stroke-width:12"></line><line x1="220" y1="120" x2="220" y2="120" stroke-linecap="round" style="stroke:rgb(155,130,100);stroke-width:12"></line><line x1="220" y1="140" x2="220" y2="140" stroke-linecap="round" style="stroke:rgb(155,105,100);stroke-width:12"></line><line x1="220" y1="160" x2="220" y2="160" stroke-linecap="round" style="stroke:rgb(155,80,100);stroke-width:12"></line><line x1="220" y1="180" x2="220" y2="180" stroke-linecap="round" style="stroke:rgb(155,55,100);stroke-width:12"></line><line x1="240" y1="20" x2="240" y2="20" stroke-linecap="round" style="stroke:rgb(145,255,100);stroke-width:12"></line><line x1="240" y1="40" x2="240" y2="40" stroke-linecap="round" style="stroke:rgb(145,230,100);stroke-width:12"></line><line x1="240" y1="60" x2="240" y2="60" stroke-linecap="round" style="stroke:rgb(145,205,100);stroke-width:12"></line><line x1="240" y1="80" x2="240" y2="80" stroke-linecap="round" style="stroke:rgb(145,180,100);stroke-width:12"></line><line x1="240" y1="100" x2="240" y2="100" stroke-linecap="round" style="stroke:rgb(145,155,100);stroke-width:12"></line><line x1="240" y1="120" x2="240" y2="120" stroke-linecap="round" style="stroke:rgb(145,130,100);stroke-width:12"></line><line x1="240" y1="140" x2="240" y2="140" stroke-linecap="round" style="stroke:rgb(145,105,100);stroke-width:12"></line><line x1="240" y1="160" x2="240" y2="160" stroke-linecap="round" style="stroke:rgb(145,80,100);stroke-width:12"></line><line x1="240" y1="180" x2="240" y2="180" stroke-linecap="round" style="stroke:rgb(145,55,100);stroke-width:12"></line><line x1="260" y1="20" x2="260" y2="20" stroke-linecap="round" style="stroke:rgb(135,255,100);stroke-width:12"></line><line x1="260" y1="40" x2="260" y2="40" stroke-linecap="round" style="stroke:rgb(135,230,100);stroke-width:12"></line><line x1="260" y1="60" x2="260" y2="60" stroke-linecap="round" style="stroke:rgb(135,205,100);stroke-width:12"></line><line x1="260" y1="80" x2="260" y2="80" stroke-linecap="round" style="stroke:rgb(135,180,100);stroke-width:12"></line><line x1="260" y1="100" x2="260" y2="100" stroke-linecap="round" style="stroke:rgb(135,155,100);stroke-width:12"></line><line x1="260" y1="120" x2="260" y2="120" stroke-linecap="round" style="stroke:rgb(135,130,100);stroke-width:12"></line><line x1="260" y1="140" x2="260" y2="140" stroke-linecap="round" style="stroke:rgb(135,105,100);stroke-width:12"></line><line x1="260" y1="160" x2="260" y2="160" stroke-linecap="round" style="stroke:rgb(135,80,100);stroke-width:12"></line><line x1="260" y1="180" x2="260" y2="180" stroke-linecap="round" style="stroke:rgb(135,55,100);stroke-width:12"></line><line x1="280" y1="20" x2="280" y2="20" stroke-linecap="round" style="stroke:rgb(125,255,100);stroke-width:12"></line><line x1="280" y1="40" x2="280" y2="40" stroke-linecap="round" style="stroke:rgb(125,230,100);stroke-width:12"></line><line x1="280" y1="60" x2="280" y2="60" stroke-linecap="round" style="stroke:rgb(125,205,100);stroke-width:12"></line><line x1="280" y1="80" x2="280" y2="80" stroke-linecap="round" style="stroke:rgb(125,180,100);stroke-width:12"></line><line x1="280" y1="100" x2="280" y2="100" stroke-linecap="round" style="stroke:rgb(125,155,100);stroke-width:12"></line><line x1="280" y1="120" x2="280" y2="120" stroke-linecap="round" style="stroke:rgb(125,130,100);stroke-width:12"></line><line x1="280" y1="140" x2="280" y2="140" stroke-linecap="round" style="stroke:rgb(125,105,100);stroke-width:12"></line><line x1="280" y1="160" x2="280" y2="160" stroke-linecap="round" style="stroke:rgb(125,80,100);stroke-width:12"></line><line x1="280" y1="180" x2="280" y2="180" stroke-linecap="round" style="stroke:rgb(125,55,100);stroke-width:12"></line><line x1="300" y1="20" x2="300" y2="20" stroke-linecap="round" style="stroke:rgb(115,255,100);stroke-width:12"></line><line x1="300" y1="40" x2="300" y2="40" stroke-linecap="round" style="stroke:rgb(115,230,100);stroke-width:12"></line><line x1="300" y1="60" x2="300" y2="60" stroke-linecap="round" style="stroke:rgb(115,205,100);stroke-width:12"></line><line x1="300" y1="80" x2="300" y2="80" stroke-linecap="round" style="stroke:rgb(115,180,100);stroke-width:12"></line><line x1="300" y1="100" x2="300" y2="100" stroke-linecap="round" style="stroke:rgb(115,155,100);stroke-width:12"></line><line x1="300" y1="120" x2="300" y2="120" stroke-linecap="round" style="stroke:rgb(115,130,100);stroke-width:12"></line><line x1="300" y1="140" x2="300" y2="140" stroke-linecap="round" style="stroke:rgb(115,105,100);stroke-width:12"></line><line x1="300" y1="160" x2="300" y2="160" stroke-linecap="round" style="stroke:rgb(115,80,100);stroke-width:12"></line><line x1="300" y1="180" x2="300" y2="180" stroke-linecap="round" style="stroke:rgb(115,55,100);stroke-width:12"></line><line x1="320" y1="20" x2="320" y2="20" stroke-linecap="round" style="stroke:rgb(105,255,100);stroke-width:12"></line><line x1="320" y1="40" x2="320" y2="40" stroke-linecap="round" style="stroke:rgb(105,230,100);stroke-width:12"></line><line x1="320" y1="60" x2="320" y2="60" stroke-linecap="round" style="stroke:rgb(105,205,100);stroke-width:12"></line><line x1="320" y1="80" x2="320" y2="80" stroke-linecap="round" style="stroke:rgb(105,180,100);stroke-width:12"></line><line x1="320" y1="100" x2="320" y2="100" stroke-linecap="round" style="stroke:rgb(105,155,100);stroke-width:12"></line><line x1="320" y1="120" x2="320" y2="120" stroke-linecap="round" style="stroke:rgb(105,130,100);stroke-width:12"></line><line x1="320" y1="140" x2="320" y2="140" stroke-linecap="round" style="stroke:rgb(105,105,100);stroke-width:12"></line><line x1="320" y1="160" x2="320" y2="160" stroke-linecap="round" style="stroke:rgb(105,80,100);stroke-width:12"></line><line x1="320" y1="180" x2="320" y2="180" stroke-linecap="round" style="stroke:rgb(105,55,100);stroke-width:12"></line><line x1="340" y1="20" x2="340" y2="20" stroke-linecap="round" style="stroke:rgb(95,255,100);stroke-width:12"></line><line x1="340" y1="40" x2="340" y2="40" stroke-linecap="round" style="stroke:rgb(95,230,100);stroke-width:12"></line><line x1="340" y1="60" x2="340" y2="60" stroke-linecap="round" style="stroke:rgb(95,205,100);stroke-width:12"></line><line x1="340" y1="80" x2="340" y2="80" stroke-linecap="round" style="stroke:rgb(95,180,100);stroke-width:12"></line><line x1="340" y1="100" x2="340" y2="100" stroke-linecap="round" style="stroke:rgb(95,155,100);stroke-width:12"></line><line x1="340" y1="120" x2="340" y2="120" stroke-linecap="round" style="stroke:rgb(95,130,100);stroke-width:12"></line><line x1="340" y1="140" x2="340" y2="140" stroke-linecap="round" style="stroke:rgb(95,105,100);stroke-width:12"></line><line x1="340" y1="160" x2="340" y2="160" stroke-linecap="round" style="stroke:rgb(95,80,100);stroke-width:12"></line><line x1="340" y1="180" x2="340" y2="180" stroke-linecap="round" style="stroke:rgb(95,55,100);stroke-width:12"></line><line x1="360" y1="20" x2="360" y2="20" stroke-linecap="round" style="stroke:rgb(85,255,100);stroke-width:12"></line><line x1="360" y1="40" x2="360" y2="40" stroke-linecap="round" style="stroke:rgb(85,230,100);stroke-width:12"></line><line x1="360" y1="60" x2="360" y2="60" stroke-linecap="round" style="stroke:rgb(85,205,100);stroke-width:12"></line><line x1="360" y1="80" x2="360" y2="80" stroke-linecap="round" style="stroke:rgb(85,180,100);stroke-width:12"></line><line x1="360" y1="100" x2="360" y2="100" stroke-linecap="round" style="stroke:rgb(85,155,100);stroke-width:12"></line><line x1="360" y1="120" x2="360" y2="120" stroke-linecap="round" style="stroke:rgb(85,130,100);stroke-width:12"></line><line x1="360" y1="140" x2="360" y2="140" stroke-linecap="round" style="stroke:rgb(85,105,100);stroke-width:12"></line><line x1="360" y1="160" x2="360" y2="160" stroke-linecap="round" style="stroke:rgb(85,80,100);stroke-width:12"></line><line x1="360" y1="180" x2="360" y2="180" stroke-linecap="round" style="stroke:rgb(85,55,100);stroke-width:12"></line><line x1="380" y1="20" x2="380" y2="20" stroke-linecap="round" style="stroke:rgb(75,255,100);stroke-width:12"></line><line x1="380" y1="40" x2="380" y2="40" stroke-linecap="round" style="stroke:rgb(75,230,100);stroke-width:12"></line><line x1="380" y1="60" x2="380" y2="60" stroke-linecap="round" style="stroke:rgb(75,205,100);stroke-width:12"></line><line x1="380" y1="80" x2="380" y2="80" stroke-linecap="round" style="stroke:rgb(75,180,100);stroke-width:12"></line><line x1="380" y1="100" x2="380" y2="100" stroke-linecap="round" style="stroke:rgb(75,155,100);stroke-width:12"></line><line x1="380" y1="120" x2="380" y2="120" stroke-linecap="round" style="stroke:rgb(75,130,100);stroke-width:12"></line><line x1="380" y1="140" x2="380" y2="140" stroke-linecap="round" style="stroke:rgb(75,105,100);stroke-width:12"></line><line x1="380" y1="160" x2="380" y2="160" stroke-linecap="round" style="stroke:rgb(75,80,100);stroke-width:12"></line><line x1="380" y1="180" x2="380" y2="180" stroke-linecap="round" style="stroke:rgb(75,55,100);stroke-width:12"></line>
</svg>
